HIERARCHY
ROOT Hips
{
	OFFSET 0.000000 0.000000 0.000000
	CHANNELS 6 Xposition Yposition Zposition Zrotation Yrotation Xrotation 
	JOINT LHipJoint
	{
		OFFSET 0.000000 0.000000 0.000000
		CHANNELS 3 Zrotation Yrotation Xrotation
		JOINT LeftUpLeg
		{
			OFFSET 1.363060 -1.794630 0.839290
			CHANNELS 3 Zrotation Yrotation Xrotation
			JOINT LeftLeg
			{
				OFFSET 2.448110 -6.726130 0.000000
				CHANNELS 3 Zrotation Yrotation Xrotation
				JOINT LeftFoot
				{
					OFFSET 2.562200 -7.039590 0.000000
					CHANNELS 3 Zrotation Yrotation Xrotation
					JOINT LeftToeBase
					{
						OFFSET 0.157640 -0.433110 2.322550
						CHANNELS 3 Zrotation Yrotation Xrotation
						End Site
						{
							OFFSET 0.000000 0.000000 0.000000
						}
					}
				}
			}
		}
	}
	JOINT RHipJoint
	{
		OFFSET 0.000000 0.000000 0.000000
		CHANNELS 3 Zrotation Yrotation Xrotation
		JOINT RightUpLeg
		{
			OFFSET -1.305520 -1.794630 0.839290
			CHANNELS 3 Zrotation Yrotation Xrotation
			JOINT RightLeg
			{
				OFFSET -2.542530 -6.985550 0.000000
				CHANNELS 3 Zrotation Yrotation Xrotation
				JOINT RightFoot
				{
					OFFSET -2.568260 -7.056230 0.000000
					CHANNELS 3 Zrotation Yrotation Xrotation
					JOINT RightToeBase
					{
						OFFSET -0.164730 -0.452590 2.363150
						CHANNELS 3 Zrotation Yrotation Xrotation
						End Site
						{
							OFFSET 0.000000 0.000000 0.000000
						}
					}
				}
			}
		}
	}
	JOINT LowerBack
	{
		OFFSET 0.000000 0.000000 0.000000
		CHANNELS 3 Zrotation Yrotation Xrotation
		JOINT Spine
		{
			OFFSET 0.028270 2.035590 -0.193380
			CHANNELS 3 Zrotation Yrotation Xrotation
			JOINT Spine1
			{
				OFFSET 0.056720 2.048850 -0.042750
				CHANNELS 3 Zrotation Yrotation Xrotation
				JOINT Neck
				{
					OFFSET 0.000000 0.000000 0.000000
					CHANNELS 3 Zrotation Yrotation Xrotation
					JOINT Neck1
					{
						OFFSET -0.054170 1.746240 0.172020
						CHANNELS 3 Zrotation Yrotation Xrotation
						JOINT Head
						{
							OFFSET 0.104070 1.761360 -0.123970
							CHANNELS 3 Zrotation Yrotation Xrotation
							End Site
							{
								OFFSET 0.000000 0.000000 0.000000
							}
						}
					}
				}
				JOINT LeftShoulder
				{
					OFFSET 0.000000 0.000000 0.000000
					CHANNELS 3 Zrotation Yrotation Xrotation
					JOINT LeftArm
					{
						OFFSET 3.362410 1.200890 -0.311210
						CHANNELS 3 Zrotation Yrotation Xrotation
						JOINT LeftForeArm
						{
							OFFSET 4.983000 -0.000000 -0.000000
							CHANNELS 3 Zrotation Yrotation Xrotation
							JOINT LeftHand
							{
								OFFSET 3.483560 -0.000000 -0.000000
								CHANNELS 3 Zrotation Yrotation Xrotation
								JOINT LeftFingerBase
								{
									OFFSET 0.000000 0.000000 0.000000
									CHANNELS 3 Zrotation Yrotation Xrotation
									JOINT LeftHandIndex1
									{
										OFFSET 0.715260 -0.000000 -0.000000
										CHANNELS 3 Zrotation Yrotation Xrotation
										End Site
										{
											OFFSET 0.000000 0.000000 0.000000
										}
									}
								}
								JOINT LThumb
								{
									OFFSET 0.000000 0.000000 0.000000
									CHANNELS 3 Zrotation Yrotation Xrotation
									End Site
									{
										OFFSET 0.000000 0.000000 0.000000
									}
								}
							}
						}
					}
				}
				JOINT RightShoulder
				{
					OFFSET 0.000000 0.000000 0.000000
					CHANNELS 3 Zrotation Yrotation Xrotation
					JOINT RightArm
					{
						OFFSET -3.136600 1.374050 -0.404650
						CHANNELS 3 Zrotation Yrotation Xrotation
						JOINT RightForeArm
						{
							OFFSET -5.241900 -0.000000 -0.000000
							CHANNELS 3 Zrotation Yrotation Xrotation
							JOINT RightHand
							{
								OFFSET -3.444170 -0.000000 -0.000000
								CHANNELS 3 Zrotation Yrotation Xrotation
								JOINT RightFingerBase
								{
									OFFSET 0.000000 0.000000 0.000000
									CHANNELS 3 Zrotation Yrotation Xrotation
									JOINT RightHandIndex1
									{
										OFFSET -0.622530 -0.000000 -0.000000
										CHANNELS 3 Zrotation Yrotation Xrotation
										End Site
										{
											OFFSET 0.000000 0.000000 0.000000
										}
									}
								}
								JOINT RThumb
								{
									OFFSET 0.000000 0.000000 0.000000
									CHANNELS 3 Zrotation Yrotation Xrotation
									End Site
									{
										OFFSET 0.000000 0.000000 0.000000
									}
								}
							}
						}
					}
				}
			}
		}
	}
}
MOTION
Frames: 8
Frame Time: 0.008333
62.735087 6.388518 -3.662264 51.555444 7.794485 17.159507 -142.170867 -11.987549 62.861090 164.971150 78.223816 -141.336150 -44.265810 -60.122424 18.511752 44.505467 33.808639 -85.354100 0.736700 5.483300 15.292300 -114.508998 -66.458873 76.611379 -2.198340 -89.434337 122.336168 79.294200 -21.211143 175.871416 57.836762 35.183096 -159.295693 -0.311300 3.587100 -9.917700 -27.941934 25.552883 -13.151076 124.223272 49.146923 -129.628404 -60.408208 69.968640 144.246356 4.833291 -56.680978 41.995095 28.937392 -58.499730 -64.587004 -3.633600 0.929400 1.857700 179.007293 56.034909 -136.237752 92.479649 82.752742 27.347996 146.196170 17.175120 179.363362 -19.757408 13.252671 -26.260370 1.852656 -10.276217 -6.437803 -7.125000 0.000000 0.000000 -10.888100 -1.252200 11.328200 -0.936736 -1.979817 87.078307 -133.375611 47.070493 80.247326 49.268971 69.999702 -63.956963 137.164497 41.641625 -162.664777 -145.558666 53.974233 -10.843301 7.125000 0.000000 0.000000 7.294000 4.746700 7.934900 
62.744349 6.388254 -3.655383 -131.370006 1.342296 41.485557 -9.895811 48.638251 -12.366149 -115.242495 63.764122 -76.483556 154.566663 -62.781952 -142.635853 177.277782 49.785958 99.676634 0.801400 5.713800 15.956200 178.273088 -77.671236 -95.874331 -172.320462 -21.321444 154.631998 -33.208048 -33.165065 42.928727 174.747022 -15.423560 169.307099 -0.292700 3.479200 -9.615800 -9.412429 -59.690311 150.907388 27.174959 -1.940755 53.605805 44.840374 29.281603 -100.144988 -129.511485 -40.648665 5.966947 55.590718 9.773920 144.256002 -3.522400 0.914800 2.027100 -115.388774 87.129571 94.134866 115.971829 -20.445876 173.997536 165.342228 35.357586 162.155254 2.791780 10.235532 -41.254523 21.890380 -23.197326 -6.478101 -7.125000 0.000000 0.000000 -10.839200 -1.242600 11.273700 -87.142361 66.800086 57.334291 -74.824931 78.641999 177.397390 -52.484104 -42.722852 -14.981316 2.799153 -4.916921 -167.280949 -15.819010 26.509258 -10.822497 7.125000 0.000000 0.000000 7.317600 4.749400 7.961300 
62.753876 6.386401 -3.649297 62.865009 24.603945 -143.601259 -176.577591 24.650995 -23.904816 -26.707725 -80.239052 28.114280 -7.325204 11.917015 121.041246 -86.114358 -75.011303 66.638059 0.879000 5.976900 16.717500 -153.552197 62.788697 152.937568 159.955921 -70.570748 53.577933 151.184241 -0.777973 61.144362 175.010031 -61.265369 24.565314 -0.296600 3.501600 -9.678600 20.921295 38.682703 -38.191720 40.814590 19.398540 -166.561649 -96.092467 80.367479 -118.362693 -84.093147 65.599303 83.069342 31.399162 -87.035494 -148.865869 -3.746800 0.913900 1.899200 -17.158285 -19.024327 92.628387 -94.504163 -60.329720 175.981505 -59.382378 -74.465120 178.679266 51.311902 -66.749355 -10.223582 -167.863086 -67.030649 173.406213 -7.125000 0.000000 0.000000 -10.675700 -1.140200 11.078600 -125.145296 -66.164609 126.803745 -100.849706 77.587979 -114.693370 1.529965 33.753444 -174.154814 -20.489609 -6.995282 -141.884146 5.075571 47.877492 -10.749799 7.125000 0.000000 0.000000 7.363600 4.675400 8.003400 
62.762079 6.384284 -3.643739 -147.477600 33.157487 -42.034723 -96.906189 75.078724 126.217520 162.281630 -69.954454 107.495164 -51.663467 -30.035358 -102.299217 -64.507083 -21.717355 -85.354438 0.836800 5.835500 16.307900 69.192006 -40.196458 -89.273921 88.738158 -10.918641 61.442581 129.073963 -32.736909 123.948149 -29.116652 58.959885 -113.852443 -0.311500 3.588300 -9.921100 162.567724 18.200360 -123.657124 121.878198 37.770227 -49.382844 -51.309865 8.502146 -5.352359 138.410940 -7.160328 -44.570083 -43.309211 -31.674025 161.670244 -3.759700 0.905700 1.974000 -139.322210 14.249884 77.695190 34.668464 -67.634588 -150.028094 -168.752259 86.420144 135.726674 -103.246380 10.329379 29.887456 -63.284333 79.683860 -6.673098 -7.125000 0.000000 0.000000 -10.555500 -1.046700 10.932500 -29.962642 0.466896 117.647520 106.861675 74.828199 -38.332254 -75.226009 -34.105716 23.176150 24.218414 -15.754487 -144.991283 -54.542716 49.700568 -10.640998 7.125000 0.000000 0.000000 7.450400 4.605200 8.091000 
62.768431 6.383490 -3.637917 14.867668 -19.630950 134.846007 11.762095 -19.811893 -9.624116 154.810682 -89.818464 112.473550 155.601457 -45.710252 -101.649679 174.386467 -77.347588 -90.568087 0.794400 5.689200 15.885400 -62.336000 -21.488510 108.147225 -129.666177 -68.553614 -10.849268 91.423839 -2.830726 83.705116 58.921014 -58.773658 94.689006 -0.315400 3.610500 -9.983200 -137.449143 5.427765 178.761054 -31.029915 46.041169 -12.137402 -71.239620 17.526530 115.137824 -165.708823 -75.385278 -22.806648 155.712883 4.893227 -124.536060 -3.853200 0.863900 1.945000 27.576636 81.775160 153.785815 170.719391 4.818520 -118.730824 -119.429502 -78.382265 -8.558431 -137.457902 0.903963 -54.631960 -101.141420 -13.156086 -6.798601 -7.125000 0.000000 0.000000 -10.411100 -1.050600 10.778600 89.339693 22.398876 78.592298 6.506708 -61.304285 -67.589128 129.032294 10.854764 -30.068216 8.154552 8.627499 178.750373 -10.051868 8.895218 -10.514000 7.125000 0.000000 0.000000 7.568900 4.562100 8.216600 
62.759962 6.385343 -3.636065 -156.714322 87.084672 -36.765905 -150.260467 76.755714 -24.444266 37.605544 -65.437505 179.322541 38.831421 70.545983 -45.100804 -86.690903 88.516585 167.848935 0.729500 5.457300 15.217500 168.813948 20.538966 -11.786451 3.720473 41.894355 70.554239 55.813637 -74.633135 -31.533415 -117.037254 21.199096 -35.823975 -0.316300 3.615400 -9.997100 25.556569 71.989466 63.433985 70.925952 -31.283055 33.740260 -167.146576 80.425424 65.330466 -52.659731 -17.169962 20.215333 137.509427 -82.421523 53.854365 -3.859700 0.868400 1.901900 -86.238945 -78.678133 -54.954428 171.900487 89.680934 -147.263482 -7.534200 20.141201 171.165834 -84.760635 -34.297108 -27.836990 -73.614244 -26.829521 -7.029501 -7.125000 0.000000 0.000000 -10.100900 -0.923900 10.424900 -3.263304 82.103135 57.039792 -49.475983 8.358894 3.777547 -30.028886 -85.963484 159.882224 44.725096 38.519875 -143.907766 -91.243262 23.977604 -10.371400 7.125000 0.000000 0.000000 7.724900 4.568000 8.389600 
62.742761 6.387195 -3.633948 -47.351552 19.377977 -139.774947 91.732211 85.323077 -90.154186 -170.882248 -54.880970 -90.237108 12.146787 49.667814 101.021156 64.730505 -51.617567 -149.176255 0.627500 5.069000 14.105400 100.898409 -34.424581 4.930372 -22.839739 -51.974447 -128.070011 -47.123025 75.437809 138.681908 -123.469014 87.204583 -82.313838 -0.331600 3.701100 -10.237100 14.150433 38.676414 67.020486 114.564763 -36.798191 -32.142279 60.382357 27.756905 165.458590 129.125971 61.922397 -59.415929 -96.011259 30.540337 -157.450826 -3.886500 0.870400 1.839800 -159.361132 -35.718420 8.975240 29.528372 71.073343 -73.397359 62.687144 -30.381545 -14.887539 -23.348925 -8.624485 -35.882755 -9.881869 -24.032381 -7.157900 -7.125000 0.000000 0.000000 -9.926900 -0.854700 10.227800 17.050712 39.107274 121.494058 -130.214649 26.140342 -57.833352 16.769647 53.575166 -12.396956 71.413449 26.820965 166.918897 -80.755166 -23.279813 -10.231500 7.125000 0.000000 0.000000 7.917200 4.670000 8.615300 
62.731646 6.389577 -3.630508 -9.276469 58.333792 -92.618936 -116.168977 51.329933 -121.243733 -15.155565 22.992668 -175.801192 24.356737 -79.843225 -84.435596 120.838830 33.031766 155.670413 0.631000 5.082800 14.144800 -37.498685 28.529947 133.197587 -50.614745 -24.414868 -48.639695 105.224317 -13.320197 110.980387 -78.794337 56.903377 35.673947 -0.331900 3.702400 -10.240800 121.591083 4.799229 26.889321 -19.514556 66.690132 2.555169 103.621421 72.656715 -80.429877 -84.315099 13.955801 158.162441 -27.944737 34.887800 -136.638893 -3.879200 0.862300 1.782400 65.665040 40.061651 46.023908 91.827714 24.429307 -114.411142 143.033159 59.400163 -9.992229 -11.811790 30.360350 -44.050286 21.657245 0.976370 -6.980500 -7.125000 0.000000 0.000000 -10.165900 -0.947000 10.498200 -38.284644 -13.865313 -177.791966 172.635347 64.779848 -135.246440 63.812664 -16.656544 -175.836705 -25.274545 6.066569 -153.468732 10.361521 31.593248 -10.155700 7.125000 0.000000 0.000000 7.987000 4.643100 8.689300 
